<mxfile host="app.diagrams.net" modified="2020-10-19T07:56:22.827Z" agent="5.0 (Windows NT 10.0; Win64; x64) AppleWebKit/537.36 (KHTML, like Gecko) Chrome/86.0.4240.75 Safari/537.36" etag="e9rsZUIHJlnfpZJHaEKl" version="13.8.0" type="github">
  <diagram id="C5RBs43oDa-KdzZeNtuy" name="Page-1">
    <mxGraphModel dx="562" dy="1103" grid="1" gridSize="10" guides="1" tooltips="1" connect="1" arrows="1" fold="1" page="1" pageScale="1" pageWidth="827" pageHeight="1169" math="0" shadow="0">
      <root>
        <mxCell id="WIyWlLk6GJQsqaUBKTNV-0" />
        <mxCell id="WIyWlLk6GJQsqaUBKTNV-1" parent="WIyWlLk6GJQsqaUBKTNV-0" />
        <mxCell id="PcF8brpZlFGDyowLFs-Q-27" value="" style="endArrow=none;html=1;entryX=0.5;entryY=0;entryDx=0;entryDy=0;exitX=0.484;exitY=0.965;exitDx=0;exitDy=0;exitPerimeter=0;" edge="1" parent="WIyWlLk6GJQsqaUBKTNV-1" source="PcF8brpZlFGDyowLFs-Q-29" target="PcF8brpZlFGDyowLFs-Q-19">
          <mxGeometry width="50" height="50" relative="1" as="geometry">
            <mxPoint x="290" y="501" as="sourcePoint" />
            <mxPoint x="340" y="451" as="targetPoint" />
          </mxGeometry>
        </mxCell>
        <mxCell id="PcF8brpZlFGDyowLFs-Q-29" value="" style="rhombus;whiteSpace=wrap;html=1;fillColor=#141414;" vertex="1" parent="WIyWlLk6GJQsqaUBKTNV-1">
          <mxGeometry x="160" y="720" width="20" height="20" as="geometry" />
        </mxCell>
        <mxCell id="PcF8brpZlFGDyowLFs-Q-35" value="" style="endArrow=none;html=1;entryX=0.5;entryY=0;entryDx=0;entryDy=0;exitX=0.484;exitY=0.965;exitDx=0;exitDy=0;exitPerimeter=0;" edge="1" parent="WIyWlLk6GJQsqaUBKTNV-1" source="PcF8brpZlFGDyowLFs-Q-36" target="PcF8brpZlFGDyowLFs-Q-23">
          <mxGeometry width="50" height="50" relative="1" as="geometry">
            <mxPoint x="260" y="515" as="sourcePoint" />
            <mxPoint x="150" y="415" as="targetPoint" />
          </mxGeometry>
        </mxCell>
        <mxCell id="PcF8brpZlFGDyowLFs-Q-36" value="" style="rhombus;whiteSpace=wrap;html=1;fillColor=#141414;" vertex="1" parent="WIyWlLk6GJQsqaUBKTNV-1">
          <mxGeometry x="160" y="400" width="20" height="20" as="geometry" />
        </mxCell>
        <mxCell id="PcF8brpZlFGDyowLFs-Q-42" value="&lt;h1&gt;Mastermind Program UML Class Diagram&lt;/h1&gt;&lt;p&gt;Work by Ryan Kotrosa&lt;/p&gt;&lt;p&gt;This is a UML diagram of the classes used in the mastermind program. Composition is indicated by the solid diamonds linking classes together.&amp;nbsp;&lt;/p&gt;" style="text;html=1;strokeColor=none;fillColor=none;spacing=5;spacingTop=-20;whiteSpace=wrap;overflow=hidden;rounded=0;" vertex="1" parent="WIyWlLk6GJQsqaUBKTNV-1">
          <mxGeometry x="40" y="50" width="490" height="120" as="geometry" />
        </mxCell>
        <mxCell id="PcF8brpZlFGDyowLFs-Q-23" value="GameRow" style="swimlane;fontStyle=1;align=center;verticalAlign=top;childLayout=stackLayout;horizontal=1;startSize=26;horizontalStack=0;resizeParent=1;resizeParentMax=0;resizeLast=0;collapsible=1;marginBottom=0;" vertex="1" parent="WIyWlLk6GJQsqaUBKTNV-1">
          <mxGeometry x="70" y="460" width="200" height="260" as="geometry" />
        </mxCell>
        <mxCell id="PcF8brpZlFGDyowLFs-Q-24" value="- row: Peg[]&#xa;- scoreW: int&#xa;- scoreBlack: int&#xa;- scoreRow: bool" style="text;strokeColor=none;fillColor=none;align=left;verticalAlign=top;spacingLeft=4;spacingRight=4;overflow=hidden;rotatable=0;points=[[0,0.5],[1,0.5]];portConstraint=eastwest;" vertex="1" parent="PcF8brpZlFGDyowLFs-Q-23">
          <mxGeometry y="26" width="200" height="74" as="geometry" />
        </mxCell>
        <mxCell id="PcF8brpZlFGDyowLFs-Q-25" value="" style="line;strokeWidth=1;fillColor=none;align=left;verticalAlign=middle;spacingTop=-1;spacingLeft=3;spacingRight=3;rotatable=0;labelPosition=right;points=[];portConstraint=eastwest;" vertex="1" parent="PcF8brpZlFGDyowLFs-Q-23">
          <mxGeometry y="100" width="200" height="8" as="geometry" />
        </mxCell>
        <mxCell id="PcF8brpZlFGDyowLFs-Q-26" value="+ GameRow()&#xa;+ GameRow(bool)&#xa;+ GameRow(int, int, int, int)&#xa;+ GameRow(int, int, int, int, bool)&#xa;+ getGameRow(): int[]&#xa;+ setGameRow(int[]): void&#xa;+ setGamePiece(int, int): void&#xa;- checkScore(int[]): void&#xa;+ getScore(): int[]&#xa;+ clearGameRow(): void&#xa;" style="text;strokeColor=none;fillColor=none;align=left;verticalAlign=top;spacingLeft=4;spacingRight=4;overflow=hidden;rotatable=0;points=[[0,0.5],[1,0.5]];portConstraint=eastwest;" vertex="1" parent="PcF8brpZlFGDyowLFs-Q-23">
          <mxGeometry y="108" width="200" height="152" as="geometry" />
        </mxCell>
        <mxCell id="PcF8brpZlFGDyowLFs-Q-19" value="Peg" style="swimlane;fontStyle=1;align=center;verticalAlign=top;childLayout=stackLayout;horizontal=1;startSize=26;horizontalStack=0;resizeParent=1;resizeParentMax=0;resizeLast=0;collapsible=1;marginBottom=0;" vertex="1" parent="WIyWlLk6GJQsqaUBKTNV-1">
          <mxGeometry x="90" y="780" width="160" height="280" as="geometry" />
        </mxCell>
        <mxCell id="PcF8brpZlFGDyowLFs-Q-20" value="+ BLUE: uint8_t&#xa;+ GREEN: uint8_t&#xa;+ YELLOW: uint8_t&#xa;+ ORANGE: uint8_t&#xa;+ RED: uint8_t&#xa;+ WHITE: uint8_t&#xa;- pegColor: uint8_t" style="text;strokeColor=none;fillColor=none;align=left;verticalAlign=top;spacingLeft=4;spacingRight=4;overflow=hidden;rotatable=0;points=[[0,0.5],[1,0.5]];portConstraint=eastwest;" vertex="1" parent="PcF8brpZlFGDyowLFs-Q-19">
          <mxGeometry y="26" width="160" height="114" as="geometry" />
        </mxCell>
        <mxCell id="PcF8brpZlFGDyowLFs-Q-21" value="" style="line;strokeWidth=1;fillColor=none;align=left;verticalAlign=middle;spacingTop=-1;spacingLeft=3;spacingRight=3;rotatable=0;labelPosition=right;points=[];portConstraint=eastwest;" vertex="1" parent="PcF8brpZlFGDyowLFs-Q-19">
          <mxGeometry y="140" width="160" height="8" as="geometry" />
        </mxCell>
        <mxCell id="PcF8brpZlFGDyowLFs-Q-22" value="+ Peg()&#xa;+ Peg(bool)&#xa;+ Peg(int)&#xa;+ clearPeg(): void&#xa;+ getPegColor(): int&#xa;+ getPegAlt(): string&#xa;+ setPegColor(int): void&#xa;- randomizePeg(): void" style="text;strokeColor=none;fillColor=none;align=left;verticalAlign=top;spacingLeft=4;spacingRight=4;overflow=hidden;rotatable=0;points=[[0,0.5],[1,0.5]];portConstraint=eastwest;" vertex="1" parent="PcF8brpZlFGDyowLFs-Q-19">
          <mxGeometry y="148" width="160" height="132" as="geometry" />
        </mxCell>
        <mxCell id="PcF8brpZlFGDyowLFs-Q-10" value="GameBoard" style="swimlane;fontStyle=1;align=center;verticalAlign=top;childLayout=stackLayout;horizontal=1;startSize=26;horizontalStack=0;resizeParent=1;resizeParentMax=0;resizeLast=0;collapsible=1;marginBottom=0;" vertex="1" parent="WIyWlLk6GJQsqaUBKTNV-1">
          <mxGeometry x="75" y="200" width="190" height="200" as="geometry" />
        </mxCell>
        <mxCell id="PcF8brpZlFGDyowLFs-Q-11" value="- boardContents: GameRow[]&#xa;- scoreRow: GameRow&#xa;- attempts: int&#xa;" style="text;strokeColor=none;fillColor=none;align=left;verticalAlign=top;spacingLeft=4;spacingRight=4;overflow=hidden;rotatable=0;points=[[0,0.5],[1,0.5]];portConstraint=eastwest;" vertex="1" parent="PcF8brpZlFGDyowLFs-Q-10">
          <mxGeometry y="26" width="190" height="54" as="geometry" />
        </mxCell>
        <mxCell id="PcF8brpZlFGDyowLFs-Q-12" value="" style="line;strokeWidth=1;fillColor=none;align=left;verticalAlign=middle;spacingTop=-1;spacingLeft=3;spacingRight=3;rotatable=0;labelPosition=right;points=[];portConstraint=eastwest;" vertex="1" parent="PcF8brpZlFGDyowLFs-Q-10">
          <mxGeometry y="80" width="190" height="8" as="geometry" />
        </mxCell>
        <mxCell id="PcF8brpZlFGDyowLFs-Q-13" value="+ GameBoard()&#xa;+ addTurnInformation(int[]): void&#xa;+ getRoundsLeft(): int&#xa;+ resetGame(): void&#xa;+ resetGame(int[]): void&#xa;+ drawGameBoard(): void&#xa;+ getScoreRow(): GameRow" style="text;strokeColor=none;fillColor=none;align=left;verticalAlign=top;spacingLeft=4;spacingRight=4;overflow=hidden;rotatable=0;points=[[0,0.5],[1,0.5]];portConstraint=eastwest;" vertex="1" parent="PcF8brpZlFGDyowLFs-Q-10">
          <mxGeometry y="88" width="190" height="112" as="geometry" />
        </mxCell>
      </root>
    </mxGraphModel>
  </diagram>
</mxfile>
